/* XPM */
static char * gamewake_xpm[] = {
"32 32 446 2",
"  	c None",
". 	c #B1B1B1",
"+ 	c #A7A7A7",
"@ 	c #929292",
"# 	c #828282",
"$ 	c #808080",
"% 	c #838383",
"& 	c #7F7F7F",
"* 	c #8B8B8B",
"= 	c #9E9E9E",
"- 	c #B2B2B2",
"; 	c #3F3F3F",
"> 	c #7B7B7B",
", 	c #686868",
"' 	c #656565",
") 	c #414242",
"! 	c #434343",
"~ 	c #7C7C7C",
"{ 	c #333535",
"] 	c #222828",
"^ 	c #3F4848",
"/ 	c #616161",
"( 	c #777878",
"_ 	c #898E8E",
": 	c #4C5151",
"< 	c #513A3A",
"[ 	c #343F3E",
"} 	c #979898",
"| 	c #505353",
"1 	c #9B9595",
"2 	c #942829",
"3 	c #B80A0B",
"4 	c #B70203",
"5 	c #9E0000",
"6 	c #800001",
"7 	c #4A4C4C",
"8 	c #535353",
"9 	c #980102",
"0 	c #AC0000",
"a 	c #C30808",
"b 	c #AE0F10",
"c 	c #916364",
"d 	c #828A8A",
"e 	c #6C0404",
"f 	c #AA1E1F",
"g 	c #E96869",
"h 	c #F69595",
"i 	c #E86161",
"j 	c #C81010",
"k 	c #B80000",
"l 	c #900001",
"m 	c #555D5D",
"n 	c #737474",
"o 	c #B30001",
"p 	c #B20001",
"q 	c #DA3030",
"r 	c #F27979",
"s 	c #F67D7E",
"t 	c #D33B3C",
"u 	c #89090A",
"v 	c #770000",
"w 	c #B90102",
"x 	c #EC6565",
"y 	c #FFE2E2",
"z 	c #FFFDFC",
"A 	c #FFD7D8",
"B 	c #F04F52",
"C 	c #970000",
"D 	c #470203",
"E 	c #7B8686",
"F 	c #650000",
"G 	c #CE1214",
"H 	c #FF8D8F",
"I 	c #FFE9EA",
"J 	c #FFF0F0",
"K 	c #FCA1A1",
"L 	c #D82021",
"M 	c #A00000",
"N 	c #870000",
"O 	c #BC0606",
"P 	c #ED8281",
"Q 	c #FFF9FA",
"R 	c #FFFFFF",
"S 	c #D4BFC6",
"T 	c #692D30",
"U 	c #FD6464",
"V 	c #E47676",
"W 	c #E58E8F",
"X 	c #FB6B6B",
"Y 	c #EB5D5D",
"Z 	c #560F10",
"` 	c #A46B71",
" .	c #FBF2F8",
"..	c #FEBDBE",
"+.	c #D93231",
"@.	c #9C0000",
"#.	c #940405",
"$.	c #820001",
"%.	c #A80000",
"&.	c #EF4A4B",
"*.	c #EEAFB5",
"=.	c #919296",
"-.	c #6F5051",
";.	c #BD4746",
">.	c #FF6262",
",.	c #FF3A3B",
"'.	c #EF1C1D",
").	c #E91212",
"!.	c #E70F0E",
"~.	c #EB1717",
"{.	c #FA2B2C",
"].	c #FF5556",
"^.	c #E85F5E",
"/.	c #7D2B2B",
"(.	c #80797C",
"_.	c #CDACB2",
":.	c #FF7E81",
"<.	c #CE1515",
"[.	c #8E0304",
"}.	c #930002",
"|.	c #AD0001",
"1.	c #920D0F",
"2.	c #340F11",
"3.	c #7E2C2C",
"4.	c #F76969",
"5.	c #FF2728",
"6.	c #D30D0B",
"7.	c #A8352E",
"8.	c #9F6960",
"9.	c #997D73",
"0.	c #967D74",
"a.	c #9D746A",
"b.	c #A85149",
"c.	c #C01915",
"d.	c #F21415",
"e.	c #FF4E4F",
"f.	c #C0706F",
"g.	c #631619",
"h.	c #B20204",
"i.	c #980000",
"j.	c #990305",
"k.	c #7F0304",
"l.	c #380C0D",
"m.	c #FF4040",
"n.	c #F00809",
"o.	c #A9332D",
"p.	c #A29A8F",
"q.	c #C9D6CF",
"r.	c #E6EFEC",
"s.	c #A7ADAC",
"t.	c #838988",
"u.	c #B6BEBC",
"v.	c #E8F3EE",
"w.	c #BCC3B9",
"x.	c #A3645A",
"y.	c #D40A09",
"z.	c #FF2B2C",
"A.	c #E53635",
"B.	c #700709",
"C.	c #FF3838",
"D.	c #EE0B0B",
"E.	c #A04F47",
"F.	c #94A29A",
"G.	c #A6ABAA",
"H.	c #CCCCCD",
"I.	c #9F9F9F",
"J.	c #C7C7C7",
"K.	c #D2D3D3",
"L.	c #E4E4E4",
"M.	c #FEFEFF",
"N.	c #C2C4C4",
"O.	c #B2C0BA",
"P.	c #B6A093",
"Q.	c #CE110F",
"R.	c #FF2E2E",
"S.	c #F61C1C",
"T.	c #FA1314",
"U.	c #A53A33",
"V.	c #C2D0C8",
"W.	c #D7D9D9",
"X.	c #AFB0B0",
"Y.	c #C4C5C5",
"Z.	c #525252",
"`.	c #B9B8B8",
" +	c #FCF6F5",
".+	c #F0F0F0",
"++	c #F5F5F5",
"@+	c #DFE0E0",
"#+	c #E1E1E2",
"$+	c #F2FEF8",
"%+	c #B8978A",
"&+	c #DF0F0F",
"*+	c #FD2525",
"=+	c #FC1213",
"-+	c #CC1614",
";+	c #A4A197",
">+	c #F0F3F2",
",+	c #F2F2F3",
"'+	c #F9F9F9",
")+	c #F2EAEA",
"!+	c #9F9E9E",
"~+	c #F7F3F3",
"{+	c #E5E5E5",
"]+	c #E8E0E0",
"^+	c #F3F3F3",
"/+	c #FAFAFA",
"(+	c #D6D7D8",
"_+	c #A2AFA7",
":+	c #BC5950",
"<+	c #F91012",
"[+	c #E80909",
"}+	c #E70505",
"|+	c #FA0808",
"1+	c #AE534B",
"2+	c #A4B1AB",
"3+	c #8A8A8B",
"4+	c #99999A",
"5+	c #E1E1E1",
"6+	c #F0EDED",
"7+	c #D3D2D2",
"8+	c #888888",
"9+	c #F9FAFA",
"0+	c #F4F4F4",
"a+	c #EEEEEE",
"b+	c #E2E1E1",
"c+	c #F7F5F5",
"d+	c #C9CACA",
"e+	c #A0A6A5",
"f+	c #C7B3A5",
"g+	c #E11A19",
"h+	c #F50708",
"i+	c #ED0303",
"j+	c #E30808",
"k+	c #AB897F",
"l+	c #E0E7E4",
"m+	c #C9CACB",
"n+	c #CDC9C9",
"o+	c #EAE3E3",
"p+	c #F5F6F6",
"q+	c #EFEFEF",
"r+	c #7E7E7E",
"s+	c #E7E7E7",
"t+	c #F7F7F7",
"u+	c #F3F4F4",
"v+	c #EEE9E9",
"w+	c #EBE6E6",
"x+	c #FBFCFD",
"y+	c #DEE3D7",
"z+	c #CA3934",
"A+	c #F70505",
"B+	c #DC0202",
"C+	c #AF1010",
"D+	c #A69B91",
"E+	c #D8DBDA",
"F+	c #F8F8F8",
"G+	c #ECEDED",
"H+	c #ECECEC",
"I+	c #8D9191",
"J+	c #8F9091",
"K+	c #F2F2F2",
"L+	c #F1F1F1",
"M+	c #E4E3E3",
"N+	c #F6F6F6",
"O+	c #D4D4D5",
"P+	c #BFC8BF",
"Q+	c #B0564F",
"R+	c #D10405",
"S+	c #CB0102",
"T+	c #931415",
"U+	c #979188",
"V+	c #757778",
"W+	c #E2E2E2",
"X+	c #EFE8E8",
"Y+	c #F0EEEE",
"Z+	c #FCFFFF",
"`+	c #7B696A",
" @	c #0C0D0D",
".@	c #AAABAB",
"+@	c #EAE2E2",
"@@	c #F7F6F6",
"#@	c #BBBBBC",
"$@	c #8F968F",
"%@	c #A45F58",
"&@	c #B40305",
"*@	c #CD0101",
"=@	c #93090B",
"-@	c #B1A59A",
";@	c #DEE0DF",
">@	c #F7F7F8",
",@	c #E9E8E8",
"'@	c #E9ECEC",
")@	c #F4F9F9",
"!@	c #F5A9A9",
"~@	c #CB9898",
"{@	c #959A9A",
"]@	c #8F8F8F",
"^@	c #A5A5A5",
"/@	c #D4D4D4",
"(@	c #E8E9E9",
"_@	c #E4E4E5",
":@	c #D1D8CD",
"<@	c #9C4C46",
"[@	c #B80103",
"}@	c #D30101",
"|@	c #9E0002",
"1@	c #A38278",
"2@	c #F5FAF6",
"3@	c #DEDEDF",
"4@	c #ECF0F0",
"5@	c #F19E9E",
"6@	c #E5B1B1",
"7@	c #F1F9F9",
"8@	c #989999",
"9@	c #373737",
"0@	c #C7C6C6",
"a@	c #E2E3E3",
"b@	c #DCDBCF",
"c@	c #972A28",
"d@	c #C10001",
"e@	c #B20000",
"f@	c #94443F",
"g@	c #C7CFC6",
"h@	c #676A6B",
"i@	c #D8CFCF",
"j@	c #F09595",
"k@	c #DAB0B0",
"l@	c #EDF4F4",
"m@	c #F2F3F3",
"n@	c #F5F4F4",
"o@	c #E6E2E2",
"p@	c #C3C4C4",
"q@	c #E0E0E0",
"r@	c #B3B3B4",
"s@	c #8D9390",
"t@	c #BFA498",
"u@	c #9D090B",
"v@	c #CE0000",
"w@	c #C80101",
"x@	c #960A0B",
"y@	c #A49286",
"z@	c #B8C3C0",
"A@	c #E2AAAB",
"B@	c #E9C7C7",
"C@	c #EEF3F3",
"D@	c #E7E1E1",
"E@	c #E6E5E5",
"F@	c #EBE4E4",
"G@	c #E3E3E3",
"H@	c #E2E4E4",
"I@	c #BAC0B3",
"J@	c #973D38",
"K@	c #B40000",
"L@	c #D80202",
"M@	c #8F2927",
"N@	c #D4D3C5",
"O@	c #F9FFFD",
"P@	c #D1D5D6",
"Q@	c #B2B2B3",
"R@	c #F2F0F0",
"S@	c #F7F8F8",
"T@	c #A8A8A9",
"U@	c #C8C9CA",
"V@	c #F1FAEF",
"W@	c #A67267",
"X@	c #CE0101",
"Y@	c #D90101",
"Z@	c #B20002",
"`@	c #963D39",
" #	c #C9C4B5",
".#	c #E2E9E3",
"+#	c #D8DADA",
"@#	c #FCFCFD",
"##	c #C7C8C9",
"$#	c #ABABAC",
"%#	c #F6F6F7",
"&#	c #F5F6F7",
"*#	c #AFB4B2",
"=#	c #B0B5A9",
"-#	c #AC7E74",
";#	c #9F0B0D",
">#	c #C70000",
",#	c #BA0000",
"'#	c #C9080A",
")#	c #AE3F3D",
"!#	c #B39286",
"~#	c #D0CCBF",
"{#	c #EAEEE4",
"]#	c #BCC1BB",
"^#	c #8D938E",
"/#	c #E2E6DE",
"(#	c #DBDBCF",
"_#	c #C1B1A3",
":#	c #B06861",
"<#	c #BE181A",
"[#	c #CB0000",
"}#	c #483D3D",
"|#	c #990A0A",
"1#	c #E90708",
"2#	c #E03031",
"3#	c #CA5F5D",
"4#	c #BF7E76",
"5#	c #C29389",
"6#	c #C3978C",
"7#	c #BF887E",
"8#	c #C46E69",
"9#	c #D74545",
"0#	c #EB1516",
"a#	c #C00202",
"b#	c #713838",
"c#	c #717777",
"d#	c #A30000",
"e#	c #DF0809",
"f#	c #F52021",
"g#	c #F83031",
"h#	c #F83233",
"i#	c #F82829",
"j#	c #EB1213",
"k#	c #C10000",
"l#	c #6A0000",
"m#	c #5F6C6C",
"n#	c #444444",
"o#	c #1A1A1A",
"p#	c #000101",
"q#	c #160000",
"r#	c #3B0000",
"s#	c #550000",
"t#	c #590000",
"u#	c #480000",
"v#	c #260000",
"w#	c #020101",
"x#	c #000000",
"y#	c #101010",
"z#	c #494949",
"A#	c #020202",
"B#	c #1C1C1C",
"C#	c #030404",
"D#	c #050506",
"E#	c #060707",
"F#	c #020708",
"G#	c #000707",
"H#	c #000607",
"I#	c #040607",
"J#	c #050505",
"K#	c #040404",
"L#	c #010101",
"M#	c #060606",
"                      . + @ # $ % & * = -                       ",
"                    @ ;                   > $                   ",
"                  ,                         '                   ",
"                  )                           !                 ",
"            ~   { ]                           ^     /           ",
"            ( _ :                             < [ } |           ",
"              1 2 3 4 5 6     7 8       9 0 a b c d             ",
"            e f g h i j k l   m n     o p q r s t u             ",
"          v w x y z A B C D     E     F G H I J K L M           ",
"          N O P Q R S T     U V W X Y   Z `  .R ..+.@.#.        ",
"          $.%.&.*.=.-.;.>.,.'.).!.~.{.].^./.(._.:.<.N [.        ",
"          }.|.1.2.3.4.5.6.7.8.9.0.a.b.c.d.e.f.  g.h.i.j.        ",
"          k.l.    m.n.o.p.q.r.s.t.u.v.w.x.y.z.A.    B.          ",
"                C.D.E.F.G.H.I.J.K.L.M.N.O.P.Q.R.                ",
"              S.T.U.V.W.X.Y.Z.`. +.+++@+#+$+%+&+*+              ",
"              =+-+;+>+,+'+)+!++ ~+{+]+^+/+(+_+:+<+[+            ",
"            }+|+1+2+3+4+5+6+7+8+9+0+a+b+c+d+e+f+g+h+            ",
"            i+j+k+l+m+n+o+p+q+r+s+t+u+v+w+0+x+y+z+A+            ",
"            B+C+D+E+F+G+H+^+/+I+J+K+0+L+M+N+O+P+Q+R+            ",
"            S+T+U+V+W+X+Y+u+Z+`+ @.@R F++@@@#@$@%@&@            ",
"            *@=@-@;@>@,@'@)@!@~@{@]@^@/@(@N+_@:@<@[@            ",
"            }@|@1@2@3@4@o+5@6@7@R N+8@9@0@K+a@b@c@d@            ",
"              e@f@g@h@i@j@k@l@0+m@n@o@p@q@r@s@t@u@v@            ",
"              w@x@y@z@A@B@C@D@E@F@G@X+^+0+H@I@J@K@              ",
"              L@K@M@N@O@P@Q@^+0+R@m@S@T@U@V@W@|@X@              ",
"                Y@Z@`@ #.#+#@###$#%#&#*#=#-#;#>#                ",
"                  ,#'#)#!#~#{#]#^#/#(#_#:#<#[#                  ",
"                  }#|#1#2#3#4#5#6#7#8#9#0#a#b#                  ",
"                  c#    d#e#f#g#h#i#j#k#l#  m#                  ",
"                n#o#  p#p#q#r#s#t#u#v#w#p#x#y#z#                ",
"              A#B#C#C#D#E#F#G#H#H#G#G#I#J#K#L#B#M#              ",
"                                                                "};
